<svg fill="#fffffF" height="200px" width="200px" version="1.1" id="Capa_1" xmlns="http://www.w3.org/2000/svg" xmlns:xlink="http://www.w3.org/1999/xlink" viewBox="0 0 400 400" xml:space="preserve"><g id="SVGRepo_bgCarrier" stroke-width="0"></g><g id="SVGRepo_tracerCarrier" stroke-linecap="round" stroke-linejoin="round"></g><g id="SVGRepo_iconCarrier"> <g> <path d="M394.922,179.482l-19.27-36.553l-5.889-40.901c-2.07-14.384-11.109-26.818-24.154-33.225l-37.061-18.201L279.8,20.963 C269.663,10.511,255.009,5.75,240.663,8.25L200,15.337L159.337,8.25c-14.342-2.501-29,2.261-39.137,12.713L91.453,50.602 L54.392,68.803c-13.046,6.406-22.083,18.84-24.154,33.223l-5.888,40.903L5.077,179.482c-6.769,12.841-6.769,28.196,0,41.036 l19.272,36.554l5.888,40.903c2.071,14.383,11.108,26.817,24.154,33.223l37.062,18.202l28.747,29.638 c10.137,10.453,24.796,15.213,39.137,12.713L200,384.664l40.663,7.087c2.518,0.438,5.046,0.653,7.558,0.653 c11.795,0,23.221-4.749,31.579-13.365l28.748-29.639l37.061-18.202c13.045-6.406,22.083-18.84,24.154-33.222l5.889-40.904 l19.271-36.554C401.693,207.678,401.691,192.322,394.922,179.482z M200,338.097c-76.27,0-138.095-61.829-138.095-138.097 c0-76.268,61.825-138.097,138.095-138.097S338.095,123.732,338.095,200C338.095,276.269,276.27,338.097,200,338.097z"></path> <path d="M247.771,125.53L125.529,247.771c-7.373,7.373-7.373,19.326,0,26.699c3.687,3.687,8.518,5.529,13.35,5.529 c4.832,0,9.664-1.843,13.35-5.529L274.47,152.229c7.373-7.372,7.373-19.327,0-26.699 C267.098,118.157,255.144,118.157,247.771,125.53z"></path> <circle cx="154.928" cy="154.928" r="28.004"></circle> <circle cx="245.072" cy="245.072" r="28.004"></circle> </g> </g></svg>